<?xml version="1.0" standalone="no"?>
<!DOCTYPE svg PUBLIC "-//W3C//DTD SVG 20010904//EN"
 "http://www.w3.org/TR/2001/REC-SVG-20010904/DTD/svg10.dtd">
<svg version="1.0" xmlns="http://www.w3.org/2000/svg"
 width="303.000000pt" height="126.000000pt" viewBox="0 0 303.000000 126.000000"
 preserveAspectRatio="xMidYMid meet">

<g transform="translate(0.000000,126.000000) scale(0.100000,-0.100000)"
fill="#000000" stroke="none">
<path d="M628 1084 c-209 -50 -348 -223 -348 -435 0 -143 36 -239 126 -337 44
-47 55 -54 64 -42 17 25 11 92 -16 165 -44 123 -52 164 -43 243 9 87 38 142
105 201 78 68 125 86 230 86 86 0 95 -2 163 -37 82 -43 144 -50 181 -20 l23
18 -53 46 c-129 113 -275 151 -432 112z"/>
<path d="M1460 695 l0 -185 45 0 44 0 3 82 3 82 60 -82 60 -81 54 -1 c62 0 65
-11 -33 115 -51 66 -57 77 -45 93 7 9 34 42 59 72 81 98 80 90 19 90 l-54 -1
-62 -81 -63 -81 0 81 0 82 -45 0 -45 0 0 -185z"/>
<path d="M669 836 c-59 -21 -96 -53 -123 -108 -25 -50 -26 -58 -26 -239 0
-108 5 -200 11 -216 12 -33 68 -93 86 -93 10 0 13 29 13 123 l0 124 58 -15
c51 -14 62 -13 114 2 103 30 161 104 161 206 0 163 -145 269 -294 216z m126
-90 c114 -48 88 -220 -36 -233 -33 -3 -52 1 -77 17 -32 20 -62 71 -62 107 0
33 36 86 71 105 41 22 59 22 104 4z"/>
<path d="M1224 800 c-18 -6 -46 -26 -63 -45 -27 -31 -31 -43 -31 -93 0 -99 51
-152 147 -152 63 0 132 46 133 88 0 18 -84 16 -100 -3 -19 -23 -66 -19 -84 7
-9 12 -16 26 -16 30 0 5 48 8 106 8 l107 0 -6 40 c-12 95 -99 148 -193 120z
m86 -80 c32 -32 24 -40 -40 -40 -57 0 -60 1 -50 20 22 41 60 50 90 20z"/>
<path d="M1922 800 c-64 -15 -102 -70 -102 -147 0 -89 55 -143 145 -143 63 0
107 23 133 69 69 123 -37 256 -176 221z m88 -90 c28 -28 26 -75 -5 -106 -43
-43 -95 -12 -95 55 0 64 58 93 100 51z"/>
<path d="M2310 803 c-8 -3 -25 -15 -37 -26 l-23 -20 0 21 c0 19 -5 22 -45 22
l-45 0 0 -215 0 -215 45 0 45 0 0 95 0 94 25 -24 c51 -52 150 -24 181 51 29
68 6 171 -44 201 -25 15 -82 24 -102 16z m50 -93 c42 -42 12 -122 -45 -122
-57 0 -87 80 -45 122 11 11 31 20 45 20 14 0 34 -9 45 -20z"/>
<path d="M2510 765 l0 -35 61 0 60 0 -65 -75 c-54 -62 -66 -82 -66 -110 l0
-35 115 0 115 0 0 35 0 35 -60 0 c-33 0 -60 4 -60 8 0 4 27 38 60 75 49 55 60
74 60 102 l0 35 -110 0 -110 0 0 -35z"/>
<path d="M1002 390 c-13 -5 -37 -21 -55 -34 -47 -35 -103 -56 -171 -63 -77 -8
-106 -34 -106 -94 l0 -42 78 6 c102 8 196 38 262 84 59 42 126 121 113 134
-14 14 -96 20 -121 9z"/>
</g>
</svg>
