<?xml version="1.0" standalone="no"?>
<!DOCTYPE svg PUBLIC "-//W3C//DTD SVG 20010904//EN"
 "http://www.w3.org/TR/2001/REC-SVG-20010904/DTD/svg10.dtd">
<svg version="1.0" xmlns="http://www.w3.org/2000/svg"
 width="1024.000000pt" height="251.000000pt" viewBox="0 0 1024.000000 251.000000"
 preserveAspectRatio="xMidYMid meet">

<g transform="translate(0.000000,251.000000) scale(0.100000,-0.100000)"
fill="#000000" stroke="none">
<path d="M1560 1899 c0 -241 -3 -385 -11 -412 -32 -122 -132 -248 -240 -303
-88 -44 -150 -54 -336 -54 l-173 0 0 -220 0 -220 193 0 c148 0 212 5 282 19
281 58 509 236 635 496 86 177 92 215 97 627 3 197 2 369 -1 382 -13 54 -21
56 -242 56 l-204 0 0 -371z"/>
<path d="M2490 1255 l0 -565 100 0 100 0 2 198 3 197 300 5 300 5 47 28 c67
40 122 105 148 173 19 51 21 73 18 160 -4 86 -9 110 -35 166 -39 84 -95 145
-158 174 -50 24 -53 24 -437 24 l-388 0 0 -565z m780 328 c64 -59 62 -193 -5
-260 l-33 -33 -269 2 -268 3 -3 158 -3 157 276 0 275 0 30 -27z"/>
<path d="M3857 1806 c-87 -32 -149 -90 -184 -176 -16 -40 -18 -78 -18 -375 l0
-330 33 -68 c25 -50 46 -77 80 -103 86 -63 98 -64 579 -64 l433 0 0 100 0 100
-431 0 -431 0 -34 34 -34 34 0 126 0 126 365 0 365 0 0 100 0 100 -365 0 -365
0 0 66 c0 70 10 99 44 126 19 16 59 18 454 18 l432 0 0 100 0 100 -442 0
c-346 -1 -451 -4 -481 -14z"/>
<path d="M4922 1387 l3 -432 33 -67 c38 -77 92 -130 171 -167 l56 -26 333 -3
332 -3 0 100 0 101 -306 0 c-343 0 -354 2 -400 69 l-24 36 0 412 0 413 -100 0
-101 0 3 -433z"/>
<path d="M6020 1255 l0 -565 100 0 100 0 0 565 0 565 -100 0 -100 0 0 -565z"/>
<path d="M7318 1459 l-3 -361 -380 294 c-433 334 -543 418 -547 418 -2 0 -3
-252 -3 -560 l0 -560 98 0 97 0 0 355 c0 210 4 355 9 355 5 0 22 -10 38 -23
30 -25 775 -600 869 -670 l24 -19 0 566 0 566 -100 0 -100 0 -2 -361z"/>
<path d="M7685 1255 l0 -565 315 0 c355 0 395 6 514 68 138 72 251 217 287
367 18 79 14 220 -10 295 -60 192 -218 339 -412 385 -50 11 -133 15 -379 15
l-315 0 0 -565z m691 344 c85 -32 152 -92 196 -176 47 -91 56 -161 34 -250
-27 -113 -93 -194 -199 -251 -52 -27 -53 -27 -289 -30 l-238 -3 0 365 0 366
220 0 c198 0 225 -2 276 -21z"/>
<path d="M9370 1804 c-189 -50 -342 -196 -401 -384 -24 -75 -28 -216 -10 -295
58 -246 296 -435 546 -435 251 0 470 161 546 400 28 85 30 230 5 315 -58 198
-218 355 -407 400 -80 18 -207 18 -279 -1z m275 -205 c77 -29 156 -104 197
-187 30 -60 33 -75 33 -152 -1 -152 -71 -267 -203 -332 -61 -30 -74 -33 -162
-33 -85 0 -101 3 -154 29 -158 78 -243 254 -202 416 34 130 130 232 256 271
53 16 177 10 235 -12z"/>
<path d="M170 910 l0 -220 85 0 85 0 0 220 0 220 -85 0 -85 0 0 -220z"/>
</g>
</svg>
